<?xml version="1.0" encoding="UTF-8" standalone="no"?>
<!DOCTYPE svg PUBLIC "-//W3C//DTD SVG 1.1//EN"
 "http://www.w3.org/Graphics/SVG/1.1/DTD/svg11.dtd">
<!-- Generated by graphviz version 12.2.1 (20241206.2353)
 -->
<!-- Title: G Pages: 1 -->
<svg width="672pt" height="98pt"
 viewBox="0.00 0.00 671.50 98.00" xmlns="http://www.w3.org/2000/svg" xmlns:xlink="http://www.w3.org/1999/xlink">
<g id="graph0" class="graph" transform="scale(1 1) rotate(0) translate(4 94)">
<title>G</title>
<polygon fill="white" stroke="none" points="-4,4 -4,-94 667.5,-94 667.5,4 -4,4"/>
<!-- cloudflare_record.hello_world -->
<g id="node1" class="node">
<title>cloudflare_record.hello_world</title>
<polygon fill="none" stroke="black" points="621.12,-90 428.88,-90 428.88,-54 621.12,-54 621.12,-90"/>
<text text-anchor="middle" x="525" y="-66.2" font-family="sans-serif" font-size="14.00">cloudflare_record.hello_world</text>
</g>
<!-- cloudflare_zero_trust_tunnel_cloudflared.couball_tunnel -->
<g id="node2" class="node">
<title>cloudflare_zero_trust_tunnel_cloudflared.couball_tunnel</title>
<polygon fill="none" stroke="black" points="350.5,-90 0,-90 0,-54 350.5,-54 350.5,-90"/>
<text text-anchor="middle" x="175.25" y="-66.2" font-family="sans-serif" font-size="14.00">cloudflare_zero_trust_tunnel_cloudflared.couball_tunnel</text>
</g>
<!-- cloudflare_record.hello_world&#45;&gt;cloudflare_zero_trust_tunnel_cloudflared.couball_tunnel -->
<g id="edge1" class="edge">
<title>cloudflare_record.hello_world&#45;&gt;cloudflare_zero_trust_tunnel_cloudflared.couball_tunnel</title>
<path fill="none" stroke="black" d="M428.52,-72C407.69,-72 384.98,-72 361.98,-72"/>
<polygon fill="black" stroke="black" points="362.19,-68.5 352.19,-72 362.19,-75.5 362.19,-68.5"/>
</g>
<!-- null_resource.run_cloudflared_config_script -->
<g id="node3" class="node">
<title>null_resource.run_cloudflared_config_script</title>
<polygon fill="none" stroke="black" points="663.5,-36 386.5,-36 386.5,0 663.5,0 663.5,-36"/>
<text text-anchor="middle" x="525" y="-12.2" font-family="sans-serif" font-size="14.00">null_resource.run_cloudflared_config_script</text>
</g>
<!-- null_resource.run_cloudflared_config_script&#45;&gt;cloudflare_zero_trust_tunnel_cloudflared.couball_tunnel -->
<g id="edge2" class="edge">
<title>null_resource.run_cloudflared_config_script&#45;&gt;cloudflare_zero_trust_tunnel_cloudflared.couball_tunnel</title>
<path fill="none" stroke="black" d="M405.47,-36.46C387.07,-39.32 368.27,-42.24 350.5,-45 336.28,-47.21 321.4,-49.52 306.59,-51.81"/>
<polygon fill="black" stroke="black" points="306.13,-48.34 296.79,-53.33 307.21,-55.26 306.13,-48.34"/>
</g>
<!-- proxmox_lxc.cloudflared_container -->
<g id="node4" class="node">
<title>proxmox_lxc.cloudflared_container</title>
<polygon fill="none" stroke="black" points="287.88,-36 62.62,-36 62.62,0 287.88,0 287.88,-36"/>
<text text-anchor="middle" x="175.25" y="-12.2" font-family="sans-serif" font-size="14.00">proxmox_lxc.cloudflared_container</text>
</g>
<!-- null_resource.run_cloudflared_config_script&#45;&gt;proxmox_lxc.cloudflared_container -->
<g id="edge3" class="edge">
<title>null_resource.run_cloudflared_config_script&#45;&gt;proxmox_lxc.cloudflared_container</title>
<path fill="none" stroke="black" d="M386.06,-18C357.56,-18 327.71,-18 299.77,-18"/>
<polygon fill="black" stroke="black" points="299.85,-14.5 289.85,-18 299.85,-21.5 299.85,-14.5"/>
</g>
</g>
</svg>
